Coordinates
version=1
nRows=6
nColumns=36
inDegrees=yes

Units are S.I. units (second, meters, Newtons, ...)
If the header above contains a line with 'inDegrees', this indicates whether rotational values are in degrees (yes) or radians (no).

endheader
time	pelvis_tilt	pelvis_list	pelvis_rotation	pelvis_tx	pelvis_ty	pelvis_tz	hip_flexion_r	hip_adduction_r	hip_rotation_r	knee_angle_r	knee_angle_r_beta	ankle_angle_r	subtalar_angle_r	mtp_angle_r	hip_flexion_l	hip_adduction_l	hip_rotation_l	knee_angle_l	knee_angle_l_beta	ankle_angle_l	subtalar_angle_l	mtp_angle_l	lumbar_extension	lumbar_bending	lumbar_rotation	arm_flex_r	arm_add_r	arm_rot_r	elbow_flex_r	pro_sup_r	arm_flex_l	arm_add_l	arm_rot_l	elbow_flex_l	pro_sup_l
      5.35000000	     11.27111639	      3.02584397	     -3.16373057	     -0.11763014	      0.88357423	      0.25078991	      6.19093442	      3.04390608	     -1.66072012	     33.59876874	      0.58640914	     28.11998656	      3.35959331	     -7.49999987	     36.28501395	     -1.92248788	     -9.30914813	      3.87393107	      0.06761285	     -6.89311354	     10.95475561	     -7.49999987	    -16.55419415	     -1.39399594	      0.04197365	     41.15648465	      6.07281209	     67.53122457	    134.53455571	     92.39896123	     41.22308177	      8.47426374	     59.22766791	    130.19940086	     74.28452958
      5.36666670	     11.21573446	      2.53303386	     -3.29696635	     -0.11734692	      0.87770314	      0.25219818	      7.03943727	      3.98048206	     -0.92952149	     35.37712137	      0.61744725	     29.31805450	      2.21144345	     -7.49999987	     36.39814117	     -2.53915398	     -8.43853815	      4.16933467	      0.07276862	     -6.46977762	     10.75788089	     -7.49999987	    -16.53597204	     -1.16678302	      0.08260972	     41.32879486	      6.31712811	     67.40228834	    134.41777315	     92.39593392	     41.37228893	      8.28469723	     59.51183833	    130.33992091	     74.39964619
      5.38333330	     11.23019151	      1.97313711	     -3.10473316	     -0.11933798	      0.87218263	      0.25097915	      7.96759795	      4.85474559	     -0.58060569	     37.15059971	      0.64840028	     30.21050445	      1.25044273	     -7.49999987	     36.43222401	     -2.84560491	     -7.20141026	      4.19890687	      0.07328475	     -6.41806268	     10.66177836	     -7.49999987	    -16.83548781	     -0.62297335	      0.10670372	     41.47226078	      6.31409554	     67.22186719	    134.00517135	     92.11589997	     41.63720713	      8.37725596	     59.77884475	    130.51514604	     74.36833854
      5.40000000	     11.20054694	      1.58673513	     -2.64107083	     -0.11759327	      0.86472353	      0.25229160	      9.03985511	      5.63421880	     -0.26804208	     39.16920471	      0.68363159	     31.21458974	      0.36364182	     -7.49999987	     36.47523972	     -2.98145916	     -6.05331572	      4.31439830	      0.07530046	     -6.46360982	      9.82838831	     -7.49999987	    -17.02384587	     -0.29743047	      0.01170347	     41.24997144	      6.59554626	     67.32902321	    133.77065387	     93.63093251	     41.72507991	      8.21038265	     59.78925571	    130.56557328	     75.17497998
      5.41666670	     10.92662348	      1.24501762	     -2.53837542	     -0.11815261	      0.85643326	      0.25396693	     10.74050190	      6.41773468	      0.09862432	     41.86595839	      0.73069882	     32.16038644	     -0.72637587	     -7.49999987	     36.85986313	     -3.23900554	     -5.36344893	      4.58473520	      0.08001872	     -6.29031977	      9.59234877	     -7.49999987	    -17.01804330	     -0.13004163	      0.06993075	     41.05144442	      6.84755967	     67.71403977	    133.74073517	     93.39457732	     42.01298653	      8.05541585	     59.92295960	    130.68285493	     74.97197218
      5.43333330	     10.95036880	      0.90711608	     -2.33077583	     -0.11843603	      0.85213659	      0.25378120	     11.97458644	      7.07551358	      0.24143811	     44.27378686	      0.77272335	     32.89126036	     -1.46895230	     -7.49999987	     36.89691943	     -3.33398792	     -4.00933878	      4.99782212	      0.08722845	     -6.28952798	      8.27021629	     -7.49999987	    -17.25419283	      0.09434608	      0.11293885	     40.57931365	      6.93659784	     67.40739971	    133.46207144	     92.81424290	     42.12626036	      7.86620961	     59.74046278	    130.84560201	     74.37626345
